<svg xmlns="http://www.w3.org/2000/svg" viewBox="0 0 1200 120" preserveAspectRatio="none"><path d="M0,0 L1200,0 L1200,59.6 L1182.9,55.9 L1165.7,40.4 L1148.6,75.5 L1131.4,62.3 L1114.3,71.6 L1097.1,108.8 L1080.0,98.8 L1062.9,71.4 L1045.7,42.4 L1028.6,52.1 L1011.4,57.4 L994.3,58.9 L977.1,58.6 L960.0,69.1 L942.9,100.8 L925.7,58.3 L908.6,67.1 L891.4,62.6 L874.3,65.5 L857.1,72.7 L840.0,60.3 L822.9,71.7 L805.7,46.2 L788.6,73.3 L771.4,61.6 L754.3,96.9 L737.1,82.6 L720.0,67.4 L702.9,72.3 L685.7,62.1 L668.6,63.7 L651.4,56.2 L634.3,63.0 L617.1,64.6 L600.0,57.3 L582.9,68.6 L565.7,41.5 L548.6,51.9 L531.4,74.8 L514.3,99.8 L497.1,71.3 L480.0,64.9 L462.9,73.3 L445.7,86.0 L428.6,55.6 L411.4,62.2 L394.3,56.0 L377.1,68.0 L360.0,63.8 L342.9,65.1 L325.7,60.4 L308.6,69.3 L291.4,70.6 L274.3,84.5 L257.1,67.7 L240.0,65.1 L222.9,72.7 L205.7,63.1 L188.6,66.4 L171.4,65.2 L154.3,58.0 L137.1,67.3 L120.0,60.4 L102.9,68.5 L85.7,64.5 L68.6,59.3 L51.4,69.8 L34.3,72.2 L17.1,65.0 L0.0,56.8 Z" fill="#0d0d0d"/></svg>